<svg width="29" height="29" fill="none" xmlns="http://www.w3.org/2000/svg"><mask id="a" style="mask-type:alpha" maskUnits="userSpaceOnUse" x="0" y="0" width="29" height="29"><path fill="#D9D9D9" d="M0 0h29v29H0z"/></mask><g mask="url(#a)"><path fill="#fff" d="M0 0h29v29H0z"/><path fill-rule="evenodd" clip-rule="evenodd" d="M34.885 27.597c6.496 0 11.824-5.25 11.824-11.667 0-3.374-1.182-6.227-3.594-8.64l-2.586-2.6C38.306 2.465 35.295 1 31.905 1c-6.527 0-11.824 5.266-11.824 11.793 0 3.437 1.435 6.4 3.674 8.608l2.096 2.081c3.012 2.98 5.471 4.115 9.034 4.115Zm-12.644-.379H7.311L4 23.908V1.44h5.376l3.469 3.295v14.08h6.085l3.311 3.31v5.092ZM9.55 2.388v16.427h2.727V4.99L9.55 2.387ZM6.49 21.7V3.775h.568v17.39h9.727v.535H6.491Zm-1.53 2.381 2.57 2.57h14.142v-4.304l-2.57-2.57v4.304H4.963Zm17.66-11.288c0 5.234 4.115 9.396 9.286 9.396 5.172 0 9.286-4.162 9.286-9.396 0-5.203-4.099-9.365-9.286-9.365-5.234.047-9.286 4.146-9.286 9.365Zm9.286 8.86c4.872 0 8.703-3.91 8.703-8.86 0-4.935-3.831-8.829-8.703-8.829-4.871 0-8.702 3.894-8.702 8.829 0 4.95 3.83 8.86 8.702 8.86Zm-6.18-8.876c.032 2.35.962 4.257 2.775 5.455-.331-.773-.52-1.64-.52-2.775 0-3.894 2.964-6.968 6.747-6.968.852 0 1.577.189 2.255.536-1.15-1.656-2.98-2.602-5.077-2.633-3.468 0-6.164 2.775-6.18 6.385Zm9.16 14.252c-3.358 0-5.88-1.04-8.671-3.91 1.734.946 3.673 1.498 5.691 1.498 6.527 0 11.825-5.297 11.825-11.824-.063-2.129-.457-3.8-1.435-5.566 2.633 2.57 3.847 5.203 3.847 8.703 0 6.102-5.077 11.1-11.257 11.1Zm-5.44-8.293a6.22 6.22 0 0 0 2.46.49c3.453 0 6.18-2.823 6.18-6.433 0-1.04-.204-1.987-.583-2.822-.804-.63-1.687-.915-2.775-.915-3.468 0-6.18 2.79-6.18 6.401 0 1.498.268 2.444.899 3.28Zm33.377 8.86c2.995 0 6.732-.819 8.577-1.875V14.007l-3.469-3.295h-9.002v4.65l3.137 2.996.584.032v.599a9.606 9.606 0 0 1-2.302.268c-1.293 0-2.46-.237-3.453-.678-.662-.804-.977-1.782-.977-3.106 0-3.942 2.822-6.606 6.937-6.606 2.633 0 5.454 1.088 7.157 2.239V5.604l-3.279-3.28C64.651 1.394 61.797 1 59.827 1c-6.969 0-12.25 4.903-12.25 11.809 0 3.547 1.403 6.558 3.689 8.781l2.554 2.491c2.365 2.302 5.376 3.516 9.002 3.516Zm-9.57-14.693c0 2.239.93 4.005 2.728 5.187-.426-.725-.63-1.56-.63-2.633 0-4.24 3.105-7.157 7.52-7.157 2.238 0 4.619.756 6.574 1.828V5.824l-2.57-2.57v4.872C65.503 7.086 62.949 6.36 60.6 6.36c-4.398 0-7.347 2.57-7.347 6.543Zm6.433 9.302c-5.597 0-9.554-3.91-9.554-9.412 0-5.392 4.051-9.255 9.711-9.255 1.435 0 3.422.253 4.746.694v.583c-1.261-.473-3.28-.74-4.746-.74-5.344 0-9.128 3.625-9.128 8.718 0 5.218 3.69 8.876 8.97 8.876 1.64 0 3.769-.394 5.408-1.025v-7.252h-3.846v-.536h4.414v8.135c-1.687.725-4.083 1.214-5.975 1.214Zm-6.149.867c2.743 2.775 5.47 3.957 9.286 3.957 2.743 0 6.165-.71 8.01-1.655V14.259l-2.728-2.601v10.91c-1.814 1.166-5.455 2.05-8.467 2.05-2.08 0-4.225-.553-6.101-1.546Zm9.113-5.266-.331-.015-2.428-2.255h2.759v2.27Zm37.11-1.876c0 6.417-5.329 11.667-11.824 11.667-3.563 0-6.023-1.135-9.034-4.115l-2.097-2.081c-2.238-2.207-3.673-5.171-3.673-8.608C73.133 6.266 78.43 1 84.957 1c3.39 0 6.401 1.466 8.624 3.69l2.586 2.6c2.412 2.413 3.594 5.266 3.594 8.64Zm-14.804 6.26c-5.171 0-9.286-4.163-9.286-9.397 0-5.219 4.052-9.318 9.286-9.365 5.187 0 9.286 4.162 9.286 9.365 0 5.234-4.115 9.396-9.286 9.396Zm8.703-9.397c0 4.95-3.831 8.86-8.703 8.86-4.871 0-8.703-3.91-8.703-8.86 0-4.935 3.832-8.829 8.703-8.829 4.872 0 8.703 3.894 8.703 8.829Zm-12.108 5.439c-1.813-1.198-2.743-3.106-2.775-5.455.016-3.61 2.712-6.385 6.18-6.385 2.097.031 3.926.977 5.077 2.633a4.808 4.808 0 0 0-2.255-.536c-3.783 0-6.748 3.074-6.748 6.968 0 1.135.19 2.002.52 2.775Zm-2.286 4.887c2.79 2.87 5.313 3.91 8.67 3.91 6.181 0 11.258-4.997 11.258-11.099 0-3.5-1.214-6.133-3.847-8.703.977 1.766 1.371 3.437 1.434 5.566 0 6.527-5.297 11.824-11.824 11.824-2.018 0-3.957-.552-5.691-1.498Zm5.691-3.894a6.224 6.224 0 0 1-2.46-.489c-.63-.835-.898-1.781-.898-3.279 0-3.61 2.712-6.4 6.18-6.4 1.088 0 1.971.283 2.775.914.378.835.583 1.781.583 2.822 0 3.61-2.727 6.432-6.18 6.432Zm27.843 7.993h-5.534l-3.311-3.31V9.813h-2.617l-3.311-3.31V1.44h17.232l3.311 3.311v5.061h-5.77v17.405Zm-5.314-.567-2.569-2.57h4.587V6.676h5.928V2.403l2.57 2.57v4.272h-5.77v17.406h-4.746Zm-1.04-22.34v17.437h.568V4.31h6.101v-.52h-12.77v.52h6.101Zm-4.887 4.934-2.57-2.57h4.966v2.57h-2.396Zm33.659 17.973h-5.533l-3.311-3.31v-8.86L117.561 1.44h6.779l5.234 3.217 1.199 2.002 3.105-5.219h6.48l2.396 3.09-7.536 11.383v11.304Zm-5.313-.567-2.569-2.57h4.587v-9.034l8.309-12.833 1.829 2.35-7.41 11.193V26.65h-4.746Zm-4.808-24.074 4.052 6.795 1.292-2.16-1.277-2.144-4.067-2.491Zm3.768 19.17v-7.315l-6.701-10.657h.663l6.322 10.153 6.353-10.153h.662l-6.732 10.689v7.284h-.567Zm24.027 5.471h-5.534l-3.311-3.31V1.44h8.924c2.664 0 4.919.994 6.479 2.554l2.539 2.539c1.592 1.592 2.317 3.42 2.317 5.833 0 4.572-3.941 8.167-8.986 8.167h-2.428v6.684Zm-6.354-5.47V3.68h6.433c3.547 0 5.991 2.255 5.991 5.55 0 3.531-2.665 6.101-6.307 6.101h-5.549v6.417h-.568Zm6.117-6.953h-5.549V4.216h5.865c3.232 0 5.407 2.018 5.407 5.014 0 3.232-2.412 5.565-5.723 5.565Zm-5.076 11.856-2.57-2.57h4.588v-6.527h3.058c5.03 0 8.813-3.563 8.829-8.293 0-1.135-.205-2.144-.646-3.121 2.223 2.096 2.901 3.531 2.901 6.227 0 4.257-3.674 7.6-8.419 7.6h-2.996v6.684h-4.745Zm2.018-20.196v6.117h2.412V8.867h3.8c-.268-1.419-1.404-2.38-2.901-2.412h-3.311Zm2.98 6.117V9.435h3.295v.11a2.998 2.998 0 0 1-3.027 3.027h-.268Zm32.256 14.646H169.43l-3.311-3.31V1.44h14.962l3.311 3.311v4.273h-9.649v.961h4.856l3.311 3.311v4.714h-8.167v.962h6.78l3.31 3.31v4.935ZM171.606 9.986v-3.5h9.648V2.403l2.57 2.57v3.484h-9.648v1.53h-2.57Zm-3.043-6.29v18.099h10.815v-.536h-10.247V12.84h8.324v-.536h-8.324V4.232h9.806v-.536h-10.374Zm3.043 15.277v-3.815h8.166v-4.21l2.57 2.57v3.926h-8.166v1.529h-2.57Zm-4.525 5.108 2.57 2.57h14.615v-4.146l-2.57-2.57v4.146h-14.615Z" fill="#000"/><path d="M20 1h11v19h-9a2 2 0 0 1-2-2V1Z" fill="#fff"/><path fill="#fff" d="M22 18h3v3h-3z"/><path fill="#fff" d="M23 19h8v9h-8z"/></g><mask id="b" style="mask-type:alpha" maskUnits="userSpaceOnUse" x="13" y="2" width="16" height="16"><path fill="#D9D9D9" d="M13 2h16v16H13z"/></mask><g mask="url(#b)"><path fill="#fff" d="M13 2h16v16H13z"/><path fill-rule="evenodd" clip-rule="evenodd" d="M-14.207 16.35c3.15 0 5.733-2.546 5.733-5.657 0-1.635-.574-3.019-1.743-4.188l-1.254-1.262c-1.078-1.078-2.537-1.788-4.18-1.788-3.166 0-5.734 2.553-5.734 5.717 0 1.667.696 3.104 1.781 4.174l1.017 1.009c1.46 1.445 2.652 1.995 4.38 1.995Zm-6.13-.184h-7.24l-1.605-1.605V3.67h2.607l1.681 1.597v6.826h2.951l1.605 1.605v2.47Zm-6.154-12.039v7.965h1.322V5.388l-1.322-1.26Zm-1.483 9.364V4.8h.275v8.431h4.716v.26h-4.991Zm-.742 1.154 1.246 1.246h6.857v-2.086l-1.246-1.246v2.086h-6.857Zm8.562-5.473c0 2.538 1.995 4.556 4.502 4.556 2.507 0 4.502-2.018 4.502-4.556 0-2.522-1.987-4.54-4.502-4.54-2.538.023-4.502 2.01-4.502 4.54Zm4.502 4.296c2.362 0 4.22-1.896 4.22-4.296 0-2.392-1.858-4.28-4.22-4.28-2.362 0-4.22 1.888-4.22 4.28 0 2.4 1.858 4.296 4.22 4.296Zm-2.996-4.303c.015 1.139.466 2.064 1.345 2.644-.16-.374-.252-.794-.252-1.345 0-1.888 1.437-3.379 3.271-3.379.413 0 .765.092 1.093.26-.558-.802-1.444-1.26-2.461-1.276-1.682 0-2.989 1.345-2.996 3.096Zm4.44 6.91c-1.627 0-2.85-.505-4.203-1.896.84.459 1.78.726 2.76.726A5.735 5.735 0 0 0-9.92 9.172c-.03-1.032-.222-1.842-.695-2.698 1.276 1.246 1.865 2.522 1.865 4.22 0 2.958-2.462 5.38-5.458 5.38Zm-2.636-4.02c.359.152.756.236 1.192.236 1.674 0 2.996-1.368 2.996-3.119 0-.504-.099-.963-.282-1.368-.39-.306-.818-.443-1.346-.443-1.681 0-2.996 1.353-2.996 3.103 0 .726.13 1.185.436 1.59ZM-.662 16.35c1.452 0 3.264-.398 4.158-.91V9.76L1.815 8.164H-2.55v2.255l1.521 1.453.283.015v.29c-.336.084-.719.13-1.116.13-.627 0-1.193-.114-1.674-.328-.321-.39-.474-.864-.474-1.506 0-1.911 1.368-3.203 3.363-3.203 1.277 0 2.645.527 3.47 1.085V5.687l-1.59-1.59c-1.008-.451-2.392-.642-3.347-.642-3.38 0-5.94 2.377-5.94 5.725 0 1.72.68 3.18 1.789 4.258l1.238 1.207C-3.88 15.761-2.42 16.35-.662 16.35Zm-4.64-7.124c0 1.085.451 1.941 1.322 2.515-.206-.352-.305-.757-.305-1.277 0-2.056 1.506-3.47 3.646-3.47 1.085 0 2.24.367 3.187.886V5.794L1.302 4.548V6.91C.637 6.405-.6 6.053-1.74 6.053c-2.133 0-3.562 1.246-3.562 3.173Zm3.119 4.51c-2.714 0-4.632-1.896-4.632-4.564 0-2.614 1.964-4.487 4.708-4.487.696 0 1.659.123 2.301.337v.282c-.611-.229-1.59-.359-2.3-.359-2.592 0-4.427 1.758-4.427 4.227 0 2.53 1.789 4.304 4.35 4.304.795 0 1.827-.191 2.622-.497V9.463h-1.865v-.26h2.14v3.944c-.818.352-1.98.589-2.897.589Zm-2.981.42c1.33 1.345 2.652 1.919 4.502 1.919 1.33 0 2.989-.344 3.883-.803V9.883L1.9 8.622v5.29c-.88.565-2.645.993-4.105.993a6.41 6.41 0 0 1-2.958-.749Zm4.418-2.553-.16-.008-1.178-1.093h1.338v1.101Zm17.994-.91c0 3.112-2.584 5.657-5.733 5.657-1.728 0-2.92-.55-4.38-1.995l-1.017-1.01c-1.085-1.07-1.78-2.506-1.78-4.173 0-3.164 2.568-5.717 5.732-5.717 1.644 0 3.104.71 4.181 1.788l1.254 1.261c1.17 1.17 1.743 2.554 1.743 4.19Zm-7.178 3.035c-2.507 0-4.502-2.018-4.502-4.556 0-2.53 1.964-4.517 4.502-4.54 2.515 0 4.502 2.018 4.502 4.54 0 2.538-1.995 4.556-4.502 4.556Zm4.22-4.556c0 2.4-1.858 4.296-4.22 4.296-2.362 0-4.22-1.896-4.22-4.296 0-2.392 1.858-4.28 4.22-4.28 2.362 0 4.22 1.888 4.22 4.28ZM8.42 11.81c-.88-.58-1.331-1.505-1.346-2.644.007-1.75 1.314-3.096 2.996-3.096 1.017.015 1.903.474 2.461 1.276a2.331 2.331 0 0 0-1.093-.26c-1.834 0-3.271 1.491-3.271 3.38 0 .55.092.97.252 1.344Zm-1.11 2.37c1.354 1.391 2.577 1.896 4.205 1.896 2.996 0 5.458-2.423 5.458-5.382 0-1.697-.589-2.973-1.865-4.22.473.857.665 1.667.695 2.7a5.735 5.735 0 0 1-5.733 5.732 5.761 5.761 0 0 1-2.76-.726Zm2.76-1.888c-.436 0-.833-.084-1.192-.237-.306-.405-.436-.864-.436-1.59 0-1.75 1.315-3.103 2.996-3.103.528 0 .956.137 1.346.443.183.405.283.864.283 1.368 0 1.75-1.323 3.119-2.997 3.119Zm13.5 3.875h-2.684l-1.605-1.605V7.728h-1.269l-1.605-1.606V3.67h8.355l1.605 1.605v2.454H23.57v8.438Zm-2.577-.275-1.245-1.246h2.224v-8.44h2.874V4.135l1.246 1.246v2.071h-2.798v8.44h-2.3ZM20.49 5.06v8.454h.275V5.06h2.958v-.252h-6.191v.252h2.958Zm-2.37 2.392-1.246-1.246h2.408v1.246H18.12Zm16.32 8.715h-2.683l-1.605-1.606v-4.296L25.878 3.67h3.287l2.538 1.559.58.97 1.506-2.53h3.142l1.162 1.499-3.654 5.519v5.48Zm-2.576-.276-1.246-1.246h2.225v-4.38l4.028-6.222.887 1.14-3.593 5.426v5.282h-2.3ZM29.532 4.22l1.964 3.295.627-1.048-.62-1.04-1.971-1.207Zm1.827 9.295V9.967L28.11 4.8h.321l3.065 4.923 3.08-4.923h.322l-3.264 5.183v3.531h-.275Zm11.65 2.652h-2.684l-1.605-1.605V3.67h4.326c1.292 0 2.385.481 3.142 1.238l1.23 1.23c.773.773 1.124 1.66 1.124 2.829 0 2.217-1.91 3.96-4.357 3.96h-1.177v3.24Zm-3.081-2.652v-8.76h3.118c1.72 0 2.905 1.093 2.905 2.69 0 1.713-1.292 2.959-3.057 2.959h-2.691v3.111h-.275Zm2.966-3.371h-2.691v-5.13h2.843c1.567 0 2.622.98 2.622 2.432 0 1.567-1.17 2.698-2.774 2.698Zm-2.462 5.748-1.246-1.246h2.225v-3.164h1.483c2.438 0 4.273-1.728 4.28-4.021 0-.55-.1-1.04-.313-1.514 1.078 1.017 1.406 1.713 1.406 3.02 0 2.064-1.78 3.684-4.082 3.684h-1.452v3.241h-2.3Zm.979-9.792v2.966h1.17V7.27h1.841c-.13-.688-.68-1.154-1.406-1.17H41.41Zm1.444 2.966v-1.52h1.598v.053c0 .817-.642 1.467-1.468 1.467h-.13Zm15.64 7.101h-7.468l-1.605-1.605V3.67h7.254l1.605 1.605v2.071h-4.678v.467h2.354l1.605 1.605v2.285h-3.96v.467h3.288l1.605 1.605v2.393Zm-6.413-8.354V6.115h4.678v-1.98l1.246 1.246v1.69h-4.678v.74h-1.246Zm-1.476-3.05v8.775h5.244v-.26h-4.968V9.195h4.035v-.26h-4.035V5.022h4.754v-.26h-5.03Zm1.476 7.407v-1.85h3.96V8.278l1.245 1.246v1.903h-3.96v.742h-1.245Zm-2.194 2.476 1.246 1.246h7.086v-2.01l-1.246-1.246v2.01h-7.086Z" fill="#000"/><path d="M26.576 2h5.333v9.212h-3.333a2 2 0 0 1-2-2V2Z" fill="#fff"/><rect x="25.606" y="3.455" width="1.455" height="1.455" rx=".727" fill="#fff"/><path fill="#fff" d="M10.576 3.455h3.879v13.091h-3.879z"/><path fill="#fff" d="M12.515 3.455h3.879v13.091h-3.879z"/><path fill="#fff" d="M13.485 7.333h3.879v13.091h-3.879z"/></g></svg>